<?xml version="1.0" encoding="iso-8859-1"?>
<!-- Uploaded to: SVG Repo, www.svgrepo.com, Generator: SVG Repo Mixer Tools -->
<svg height="800px" width="800px" version="1.1" id="Layer_1" xmlns="http://www.w3.org/2000/svg" xmlns:xlink="http://www.w3.org/1999/xlink" 
	 viewBox="0 0 511.998 511.998" xml:space="preserve">
<path style="fill:#3EAC92;" d="M149.216,377.151c0,0-33.47-54.049-34.164-127.4c0,0-34.172,37.036-29.12,254.801l332.943-0.209
	c24.013-257.952-13.513-338.139-13.513-338.139c10.187,58.211-56.756,265.588-61.225,274.347L149.216,377.151z"/>
<path style="fill:#328777;" d="M129.478,504.343c32.587-133.465,22.187-376.913,22.187-376.913
	c44.07,75.659,60.32,262.775,60.32,262.775l-2.392,113.922L129.478,504.343"/>
<path style="fill:#3EAC92;" d="M198.095,503.895C239.57,286.691,214.831,76.41,214.831,76.41
	c72.764,84.406,67.935,304.924,67.935,304.924v123.008L198.095,503.895"/>
<path style="fill:#328777;" d="M266.335,504.551c0,0,26.195-327.798,124.79-434.033c0,0-48.388,229.199-48.388,434.033"/>
<g style="opacity:0.33;">
	<path style="fill:#328777;" d="M367.328,372.025c-11.044,37.442-20.453,65.425-22.034,68.525l-194.92-63.398
		c0,0-5.834-9.425-12.68-25.735c-6.347,12.628-20.307,32.535-49.856,50.196c-1.276,28.769-1.68,62.777-0.748,102.94l332.943-0.209
		c1.931-20.751,3.463-40.345,4.65-58.846C395.815,427.251,377.129,393.933,367.328,372.025z"/>
</g>
<path d="M412.295,162.749c-1.627-3.477-5.571-5.216-9.237-4.057c-3.661,1.154-5.9,4.84-5.239,8.621
	c6.628,37.874-22.244,146.882-42.496,214.277c12.21-162.028,42.906-308.961,43.291-310.792c0.711-3.368-0.913-6.795-3.969-8.379
	c-3.055-1.583-6.792-0.933-9.133,1.59c-40.133,43.241-73.099,125.591-98.07,244.888c-1.012-15.352-2.478-32.291-4.597-49.93
	c-10.654-88.704-31.869-152.023-63.057-188.201c-2.197-2.547-5.802-3.366-8.881-2.009c-3.08,1.354-4.915,4.561-4.522,7.902
	c0.17,1.446,11.655,102.183,5.208,234.861c-9.177-61.101-25.577-142.936-51.795-187.946c-1.773-3.043-5.39-4.486-8.769-3.494
	c-3.379,0.99-5.646,4.156-5.496,7.674c0.069,1.616,4.485,109.536-2.058,220.078c-9.236-22.152-20.382-57.264-20.771-98.365
	c-0.03-3.139-1.973-5.942-4.902-7.071c-2.929-1.129-6.251-0.356-8.38,1.952c-1.662,1.803-10.359,12.649-18.31,49.308
	c-10.628,49.003-14.947,119.946-12.838,210.861c0.097,4.159,3.496,7.478,7.654,7.478c0.008,0,0.017,0,0.026,0l43.641-0.143
	c0.472,0.088,0.942,0.145,1.408,0.145c0.495,0,0.98-0.061,1.457-0.154l286.022-0.938c3.943-0.013,7.232-3.02,7.598-6.947
	C450.011,246.895,413.847,166.063,412.295,162.749z M377.416,99.546c-11.364,61.036-34.858,200.633-40.893,340.032
	c-0.032,0.323-0.05,0.644-0.042,0.965c-0.791,18.51-1.276,37.013-1.379,55.325l-60.439,0.198
	c2.127-22.607,9.346-91.523,24.602-168.505C319.586,225.035,346.335,147.213,377.416,99.546z M274.282,380.061
	c-8.959,55.218-13.501,99.884-15.001,116.056l-52.943,0.174c6.507-35.505,11.253-70.718,14.663-104.53
	c0.103-0.498,0.156-1.013,0.157-1.537c7.009-70.255,8.276-134.36,7.674-182.261c-0.557-44.466-2.751-80.787-4.578-104.185
	C276.27,194.411,274.441,369.737,274.282,380.061z M161.874,164.753c30.096,81.111,42.806,213.088,43.923,225.209
	c-3.48,34.648-8.348,70.431-15.03,106.381l-50.089,0.164c7.666-34.715,12.727-75.901,16.014-117.958
	c0.147-0.686,0.205-1.391,0.16-2.097C163.063,295.495,162.765,211.654,161.874,164.753z M105.254,300.827
	c1.486-7.275,3.002-13.492,4.478-18.784c6.779,50.627,26.243,87.275,31.622,96.642c-3.346,42.284-8.519,83.53-16.383,117.873
	l-31.546,0.103C91.415,392.759,98.697,332.92,105.254,300.827z M411.47,495.618l-61.053,0.2c0.102-17.808,0.564-35.799,1.323-53.801
	c4.569-11.424,21.438-63.964,35.905-118.337c11.23-42.209,18.899-77.055,22.971-104.315c1.008,6.356,1.987,13.38,2.899,21.119
	C418.947,286.659,422.926,368.174,411.47,495.618z"/>
<path d="M141.042,26.157c1.435,1.436,3.383,2.243,5.413,2.243c2.03,0,3.978-0.806,5.413-2.242l12.541-12.541
	c2.99-2.991,2.99-7.838,0-10.828c-2.99-2.989-7.838-2.989-10.827,0l-7.127,7.127l-7.674-7.674c-2.99-2.991-7.838-2.99-10.827-0.001
	c-2.99,2.99-2.99,7.838,0,10.827L141.042,26.157z"/>
<path d="M327.928,75.333c1.495,1.494,3.455,2.242,5.414,2.242s3.919-0.747,5.414-2.242l12.541-12.541
	c2.99-2.991,2.99-7.838,0-10.828c-2.991-2.989-7.838-2.989-10.828,0l-7.126,7.127l-7.674-7.675c-2.991-2.989-7.838-2.989-10.828,0
	c-2.99,2.991-2.99,7.838,0,10.828L327.928,75.333z"/>
</svg>