<?xml version="1.0" encoding="iso-8859-1"?>
<!-- Uploaded to: SVG Repo, www.svgrepo.com, Generator: SVG Repo Mixer Tools -->
<svg height="800px" width="800px" version="1.1" id="Layer_1" xmlns="http://www.w3.org/2000/svg" xmlns:xlink="http://www.w3.org/1999/xlink" 
	 viewBox="0 0 512.853 512.853" xml:space="preserve">
<g transform="translate(1 1)">
	<path style="fill:#FFE100;" d="M295.96,181.187c14.507,7.68,25.6,19.627,33.28,34.133c68.267-17.067,99.84-79.36,99.84-133.973
		C353.133,80.493,310.467,128.28,295.96,181.187"/>
	<path style="fill:#FFA800;" d="M406.893,86.467c-1.707,49.493-28.16,103.253-83.627,125.44c1.707,2.56,3.413,4.267,4.267,6.827
		c68.267-17.067,99.84-79.36,99.84-133.973C420.547,84.76,413.72,85.613,406.893,86.467"/>
	<path style="fill:#FFE100;" d="M336.92,231.533c2.56,7.68,3.413,15.36,3.413,23.893c0,8.533-0.853,16.213-3.413,23.893
		c60.587,36.693,126.293,14.507,165.547-23.893C447.853,200.813,383.853,204.227,336.92,231.533"/>
	<path style="fill:#FFA800;" d="M388.973,213.613c26.453,3.413,54.613,16.213,79.36,41.813
		C447,276.76,417.987,292.973,385.56,297.24c45.227,5.973,87.893-12.8,116.907-41.813
		C466.627,219.587,425.667,209.347,388.973,213.613"/>
	<g>
		<path style="fill:#FFE100;" d="M255,170.093c8.533,0,16.213,0.853,23.893,3.413C315.587,112.92,294.253,47.213,255,7.96
			c-54.613,54.613-51.2,118.613-23.893,165.547C238.787,170.947,246.467,170.093,255,170.093"/>
		<path style="fill:#FFE100;" d="M214.04,180.333c-17.067-68.267-79.36-99.84-133.973-99.84c0,76.8,47.787,119.467,100.693,133.973
			C188.44,199.96,199.533,188.013,214.04,180.333"/>
		<path style="fill:#FFE100;" d="M169.667,255.427c0-8.533,0.853-16.213,3.413-23.893c-60.587-36.693-126.293-15.36-165.547,23.893
			c54.613,54.613,118.613,51.2,165.547,23.893C170.52,271.64,169.667,263.96,169.667,255.427"/>
		<path style="fill:#FFE100;" d="M179.907,296.387c-68.267,17.067-99.84,79.36-99.84,133.973c76.8,0,119.467-47.787,133.973-100.693
			C199.533,321.987,187.587,310.893,179.907,296.387"/>
		<path style="fill:#FFE100;" d="M255,340.76c-8.533,0-16.213-0.853-23.893-3.413C194.413,397.933,215.747,463.64,255,502.893
			c54.613-54.613,51.2-118.613,23.893-165.547C271.213,339.907,263.533,340.76,255,340.76"/>
		<path style="fill:#FFE100;" d="M329.24,296.387c-7.68,14.507-19.627,25.6-34.133,33.28c17.067,68.267,79.36,99.84,133.973,99.84
			C429.933,353.56,382.147,310.893,329.24,296.387"/>
	</g>
	<path style="fill:#FFA800;" d="M407.747,424.387c6.827,0.853,14.507,1.707,21.333,1.707c0-76.8-47.787-119.467-100.693-133.973
		c-1.707,3.413-4.267,5.973-5.973,9.387C367.64,318.573,406.04,358.68,407.747,424.387"/>
	<g>
		<path style="fill:#FFFFFF;" d="M103.107,424.387c0.853-49.493,27.307-103.253,83.627-125.44c-1.707-2.56-3.413-4.267-4.267-6.827
			c-68.267,17.067-99.84,79.36-99.84,133.973C89.453,426.093,96.28,425.24,103.107,424.387"/>
		<path style="fill:#FFFFFF;" d="M121.027,297.24c-26.453-4.267-53.76-16.213-79.36-41.813C63,234.093,92.013,217.88,124.44,213.613
			c-45.227-5.973-87.893,12.8-116.907,41.813C43.373,291.267,84.333,302.36,121.027,297.24"/>
		<path style="fill:#FFFFFF;" d="M102.253,86.467c-7.68-0.853-14.507-1.707-22.187-1.707c0,76.8,47.787,119.467,100.693,133.973
			c1.707-3.413,4.267-5.973,5.973-9.387C142.36,192.28,103.96,152.173,102.253,86.467"/>
	</g>
	<path style="fill:#63D3FD;" d="M340.333,255.427c0-46.933-38.4-85.333-85.333-85.333s-85.333,38.4-85.333,85.333
		s38.4,85.333,85.333,85.333S340.333,302.36,340.333,255.427"/>
	<path style="fill:#3DB9F9;" d="M255,170.093c-4.267,0-8.533,0.853-12.8,0.853c40.96,6.827,72.533,41.813,72.533,84.48
		s-31.573,78.507-72.533,84.48c4.267,0.853,8.533,0.853,12.8,0.853c46.933,0,85.333-38.4,85.333-85.333S301.933,170.093,255,170.093
		"/>
	<path d="M255,349.293c-52.053,0-93.867-41.813-93.867-93.867S202.947,161.56,255,161.56s93.867,41.813,93.867,93.867
		S307.053,349.293,255,349.293z M255,178.627c-42.667,0-76.8,34.133-76.8,76.8s34.133,76.8,76.8,76.8s76.8-34.133,76.8-76.8
		S297.667,178.627,255,178.627z"/>
	<path d="M203.8,263.96c-5.12,0-8.533-3.413-8.533-8.533c0-33.28,26.453-59.733,59.733-59.733c5.12,0,8.533,3.413,8.533,8.533
		c0,5.12-3.413,8.533-8.533,8.533c-23.893,0-42.667,18.773-42.667,42.667C212.333,260.547,208.92,263.96,203.8,263.96z"/>
	<path d="M330.093,223c-3.413,0-5.973-1.707-7.68-4.267c-6.827-12.8-17.067-23.04-29.867-30.72c-3.413-1.707-5.12-5.973-4.267-9.387
		C306.2,112.067,359.107,71.96,429.933,71.96c5.12,0,8.533,3.413,8.533,8.533c0,58.027-33.28,123.733-106.667,142.507
		C330.947,223,330.947,223,330.093,223z M306.2,176.92c11.093,6.827,20.48,16.213,27.307,27.307
		c57.173-17.067,84.48-68.267,87.04-115.2C365.08,92.44,322.413,124.013,306.2,176.92z"/>
	<path d="M402.627,306.627c-23.04,0-46.933-5.973-69.973-19.627c-3.413-1.707-5.12-5.973-3.413-9.387
		c1.707-6.827,3.413-14.507,3.413-21.333s-0.853-14.507-3.413-21.333c-0.853-3.413,0.853-7.68,4.267-9.387
		c59.733-34.987,125.44-25.6,175.787,24.747c1.707,1.707,2.56,3.413,2.56,5.973c0,2.56-0.853,4.267-2.56,5.973
		C481.987,287.853,443.587,306.627,402.627,306.627z M346.307,275.053c52.053,28.16,107.52,11.093,143.36-19.627
		c-41.813-37.547-94.72-44.373-143.36-19.627c1.707,6.827,1.707,12.8,1.707,19.627C348.867,262.253,348.013,269.08,346.307,275.053z
		"/>
	<path d="M278.893,182.04c-0.853,0-1.707,0-2.56,0c-14.507-4.267-29.013-4.267-42.667,0c-3.413,0.853-7.68-0.853-9.387-4.267
		c-34.987-59.733-25.6-125.44,24.747-175.787c3.413-3.413,8.533-3.413,11.947,0c40.96,40.96,64.853,110.933,25.6,175.787
		C284.867,180.333,282.307,182.04,278.893,182.04z M255,161.56c6.827,0,13.653,0.853,19.627,2.56
		C302.787,112.067,285.72,56.6,255,20.76c-37.547,41.813-45.227,94.72-19.627,143.36C242.2,162.413,248.173,161.56,255,161.56z"/>
	<path d="M180.76,223c-0.853,0-1.707,0-2.56,0C111.64,204.227,71.533,151.32,71.533,80.493c0-5.12,3.413-8.533,8.533-8.533
		c58.027,0,123.733,33.28,142.507,106.667c0.853,3.413-0.853,7.68-4.267,9.387c-12.8,6.827-23.04,17.067-30.72,29.867
		C185.88,221.293,183.32,223,180.76,223z M88.6,89.027c3.413,56.32,34.987,98.133,87.893,115.2
		c6.827-11.093,16.213-20.48,27.307-27.307C186.733,119.747,135.533,92.44,88.6,89.027z"/>
	<path d="M103.96,307.48c-36.693,0-72.533-15.36-102.4-45.227c-3.413-3.413-3.413-8.533,0-11.947
		c40.96-40.96,110.933-64.853,175.787-25.6c3.413,1.707,5.12,5.973,3.413,9.387c-1.707,6.827-2.56,13.653-2.56,21.333
		c0,6.827,0.853,14.507,3.413,21.333c0.853,3.413-0.853,7.68-4.267,9.387C153.453,300.653,128.707,307.48,103.96,307.48z
		 M20.333,255.427c41.813,37.547,94.72,45.227,143.36,19.627c-1.707-6.827-2.56-12.8-2.56-19.627s0.853-13.653,2.56-19.627
		C110.787,207.64,55.32,223.853,20.333,255.427z"/>
	<path d="M80.067,438.893c-5.12,0-8.533-3.413-8.533-8.533c0-58.027,33.28-123.733,106.667-142.507
		c3.413-0.853,7.68,0.853,9.387,4.267c6.827,12.8,17.067,23.04,29.867,30.72c3.413,1.707,5.12,5.973,4.267,9.387
		C203.8,398.787,150.893,438.893,80.067,438.893z M176.493,306.627c-57.173,17.067-84.48,68.267-87.04,115.2
		c56.32-3.413,98.133-34.987,115.2-87.893C192.707,327.107,183.32,317.72,176.493,306.627z"/>
	<path d="M255,511.427L255,511.427c-2.56,0-4.267-0.853-5.973-2.56c-40.96-40.96-64.853-110.933-25.6-175.787
		c1.707-3.413,5.973-5.12,9.387-3.413c14.507,4.267,29.013,4.267,42.667,0c3.413-0.853,7.68,0.853,9.387,4.267
		c34.987,59.733,25.6,125.44-24.747,175.787C259.267,510.573,257.56,511.427,255,511.427z M235.373,346.733
		c-28.16,52.053-11.093,107.52,19.627,143.36c37.547-41.813,45.227-94.72,19.627-143.36
		C260.973,350.147,248.173,350.147,235.373,346.733z"/>
	<path d="M429.933,438.893c-58.027,0-123.733-33.28-142.507-106.667c-0.853-3.413,0.853-7.68,4.267-9.387
		c12.8-6.827,23.04-17.067,30.72-29.867c1.707-3.413,5.973-5.12,9.387-4.267c66.56,17.92,106.667,70.827,106.667,141.653
		C438.467,435.48,435.053,438.893,429.933,438.893z M306.2,333.933c17.067,57.173,68.267,84.48,115.2,87.04
		c-3.413-56.32-34.987-98.133-87.893-115.2C326.68,317.72,317.293,327.107,306.2,333.933z"/>
	<path d="M169.667,263.96H127c-5.12,0-8.533-3.413-8.533-8.533c0-5.12,3.413-8.533,8.533-8.533h42.667
		c5.12,0,8.533,3.413,8.533,8.533C178.2,260.547,174.787,263.96,169.667,263.96z"/>
	<path d="M383,263.96h-42.667c-5.12,0-8.533-3.413-8.533-8.533c0-5.12,3.413-8.533,8.533-8.533H383c5.12,0,8.533,3.413,8.533,8.533
		C391.533,260.547,388.12,263.96,383,263.96z"/>
	<path d="M255,178.627c-5.12,0-8.533-3.413-8.533-8.533v-42.667c0-5.12,3.413-8.533,8.533-8.533s8.533,3.413,8.533,8.533v42.667
		C263.533,175.213,260.12,178.627,255,178.627z"/>
	<path d="M255,391.96c-5.12,0-8.533-3.413-8.533-8.533V340.76c0-5.12,3.413-8.533,8.533-8.533s8.533,3.413,8.533,8.533v42.667
		C263.533,388.547,260.12,391.96,255,391.96z"/>
	<path d="M194.413,203.373c-2.56,0-4.267-0.853-5.973-2.56l-33.28-33.28c-3.413-3.413-3.413-8.533,0-11.947s8.533-3.413,11.947,0
		l33.28,33.28c3.413,3.413,3.413,8.533,0,11.947C198.68,202.52,196.973,203.373,194.413,203.373z"/>
	<path d="M348.867,357.827c-2.56,0-4.267-0.853-5.973-2.56l-33.28-33.28c-3.413-3.413-3.413-8.533,0-11.947
		c3.413-3.413,8.533-3.413,11.947,0l33.28,33.28c3.413,3.413,3.413,8.533,0,11.947C353.133,356.973,351.427,357.827,348.867,357.827
		z"/>
	<path d="M315.587,203.373c-2.56,0-4.267-0.853-5.973-2.56c-3.413-3.413-3.413-8.533,0-11.947l33.28-33.28
		c3.413-3.413,8.533-3.413,11.947,0c3.413,3.413,3.413,8.533,0,11.947l-33.28,33.28C319.853,202.52,317.293,203.373,315.587,203.373
		z"/>
	<path d="M161.133,357.827c-2.56,0-4.267-0.853-5.973-2.56c-3.413-3.413-3.413-8.533,0-11.947l33.28-33.28
		c3.413-3.413,8.533-3.413,11.947,0c3.413,3.413,3.413,8.533,0,11.947l-33.28,33.28C165.4,356.973,163.693,357.827,161.133,357.827z
		"/>
</g>
</svg>